<?xml version="1.0" encoding="UTF-8"?>
<svg id="planet" xmlns="http://www.w3.org/2000/svg" xmlns:xlink="http://www.w3.org/1999/xlink" viewBox="0 0 294.93 260.03">
  <defs>
    <style>
      .cls-1 {
        fill: url(#Nepojmenovaný_přechod_416);
      }

      .cls-2 {
        fill: url(#Nepojmenovaný_přechod_369);
      }
    </style>
    <linearGradient id="Nepojmenovaný_přechod_369" data-name="Nepojmenovaný přechod 369" x1="51.3" y1="44.48" x2="243.15" y2="215.95" gradientUnits="userSpaceOnUse">
      <stop offset="0" stop-color="#8c8c8c"/>
      <stop offset="1" stop-color="#383838"/>
    </linearGradient>
    <linearGradient id="Nepojmenovaný_přechod_416" data-name="Nepojmenovaný přechod 416" x1="23.24" y1="29.76" x2="258.31" y2="239.87" gradientUnits="userSpaceOnUse">
      <stop offset=".06" stop-color="#8c8c8c"/>
      <stop offset="1" stop-color="#383838"/>
    </linearGradient>
  </defs>
  <path class="cls-2" d="M274.86,114.87c.22,1.85.39,3.7.52,5.57,7.05-6.9,12.36-13.54,15.66-19.7-5.18,4.75-10.58,9.47-16.18,14.13ZM277.42,71.52c.2.16.38.33.56.5l.07-.4c-.21-.04-.42-.07-.63-.1ZM271.92,142.81c-42.03,32.14-86.02,53.03-122.29,60.41-12.42,2.53-23.94,3.47-34.17,2.73-2.27-.17-4.49-.41-6.64-.76h0s-.03-.01-.04-.01c.68-.25,1.36-.51,2.05-.78h.01c14.06-5.46,28.69-11.81,43.58-19,32.03-10.73,69.16-30.81,105.4-58.52,5.16-3.95,10.18-7.96,15.05-12.01-.51-4.42-1.26-8.79-2.22-13.09-.13-.63-.28-1.26-.44-1.88-.04-.01-.09-.01-.13-.01-49.03-3.1-80.23,11.53-93.71,19.83.63,1.97.65,4.16-.07,6.27-1.79,5.22-7.47,8.01-12.7,6.22-5.22-1.79-8.01-7.47-6.22-12.7,1.79-5.22,7.47-8.01,12.7-6.22,1.75.6,3.22,1.63,4.34,2.94,13.86-8.51,45.48-23.26,94.76-20.39-2.09-7.68-4.88-15.1-8.3-22.19-.86-.08-1.71-.16-2.57-.23-37.65-3.11-64.22,5.69-78.73,12.65.64,2.12.58,4.47-.32,6.68-2.1,5.11-7.94,7.55-13.05,5.45-5.1-2.09-7.55-7.93-5.45-13.04,2.1-5.11,7.94-7.55,13.04-5.45,1.56.64,2.87,1.63,3.88,2.84,14.93-7.18,42.3-16.32,80.96-13.12.04,0,.08.01.12.01C241.98,33.86,207.01,7.47,164.14,1.33c-49.41-7.08-96.3,14.62-123.7,52.38,15.59-9.19,35.56-17.04,58.42-17.13.21-.81.53-1.6.96-2.36,2.73-4.8,8.83-6.49,13.63-3.76,4.81,2.73,6.49,8.83,3.76,13.63-2.72,4.8-8.83,6.49-13.63,3.76-2.79-1.59-4.53-4.33-4.96-7.28-25.11.17-46.92,10.07-63.79,21.54-6.54,10.65-11.6,22.38-14.88,34.94,10.59-10.5,28.46-24.13,51.47-26.46.09-.51.22-1.02.39-1.53,1.79-5.23,7.48-8.01,12.7-6.23,5.22,1.79,8.01,7.48,6.22,12.7-1.79,5.22-7.47,8.01-12.69,6.22-3.38-1.15-5.73-3.93-6.5-7.16-25.47,2.7-44.37,20.03-53.32,30.07-.46,2.29-.86,4.6-1.19,6.93-1.31,9.13-1.63,18.17-1.05,27.02,7.64-8.74,22.14-22.23,41.3-25.78.07-.71.23-1.42.47-2.13,1.79-5.22,7.47-8.01,12.7-6.22,5.22,1.79,8.01,7.47,6.22,12.7-1.79,5.22-7.47,8.01-12.69,6.22-3.16-1.08-5.43-3.59-6.33-6.55-20.01,3.95-34.95,19.79-41.17,27.46,1.51,13.85,5.25,27.15,10.87,39.5,9.14-12.5,28.77-33.47,60.2-38.5.04-.83.19-1.66.45-2.48,1.68-5.18,7.3-7.84,12.56-5.93,5.26,1.91,8.17,7.65,6.5,12.84-1.68,5.18-7.3,7.83-12.56,5.93-3.07-1.11-5.35-3.54-6.36-6.41-31.65,5.08-50.76,27.05-58.83,38.64,2,4.02,4.21,7.94,6.62,11.72,3.5,5.54,7.43,10.8,11.73,15.74,19.76,22.73,47.48,38.74,79.63,43.34,71.08,10.18,136.94-39.19,147.11-110.26.4-2.76.7-5.51.92-8.25-1.13.87-2.26,1.75-3.4,2.62Z"/>
  <path class="cls-1" d="M291.05,100.72h-.01v.02c-3.3,6.16-8.61,12.8-15.66,19.7-22.32,21.84-62,46.21-109.89,65.64-19.59,7.95-38.74,14.34-56.67,19.11h0c-22.96,6.1-43.9,9.54-61.15,10.17-24.88.92-42.08-4-46.54-15.19-3.57-8.98,1.54-20.77,13.29-33.71-5.7,8-7.79,15.16-5.52,20.88,2.91,7.32,12.59,11.34,27.04,12.28,28.32,1.86,74.97-8.12,124.79-28.34,52.03-21.11,93.9-47.85,111.92-69.5,8.05-9.66,11.35-18.3,8.69-24.98-.71-1.79-1.84-3.39-3.35-4.78-.18-.17-.36-.34-.56-.5h-.01c-2.01-1.73-4.63-3.13-7.79-4.23,12.68,2.04,21.23,6.7,24.19,14.12,2.19,5.51,1.12,12.07-2.76,19.31Z"/>
</svg>